# File created by Blade
# Date/Time:  Thu Sep 25 17:54:10 2014
# Frame Rate: 120.000 fps
#------------------------------------------------------
:FULLY-SPECIFIED
:DEGREES
1523
root 0.179003 32.466778 -6.995338 28.779013 2.313704 -0.209493
Spine -34.019852 -3.256890 1.591208
Head -4.414995 -12.128048 4.775541
LeftShoulder 5.921136 35.527924 28.245480
LeftArm 77.628987 11.450347 -68.181482
LeftForeArm -17.535583 -0.000000 96.021390
LeftHand -12.149455 -0.000000 -9.347410
LeftHandThumb1 -26.253704 0.000000 33.147579
RightShoulder -0.443187 -16.665243 -46.738975
RightArm 94.918767 7.282208 78.656868
RightForeArm 18.450044 -0.000000 98.772345
RightHand 12.340607 -0.000000 -6.808541
RightHandThumb1 -24.326973 -0.000000 -32.862282
LeftUpLeg -24.734453 4.190360 -0.364769
LeftLeg -0.440133 -0.000000 0.000000
LeftFoot -5.542837 -2.844483 -1.539487
LeftToeBase 4.058624 -0.000000 -0.000000
RightUpLeg -24.690060 -7.641103 4.739575
RightLeg -0.432369 -0.000000 0.000000
RightFoot -8.698316 -1.655567 11.190951
RightToeBase 16.134691 -0.000000 -0.000000
1524
root 0.179629 32.465854 -7.009283 28.831560 2.313083 -0.205302
Spine -34.009003 -3.451198 1.703529
Head -4.792814 -12.251214 4.782488
LeftShoulder 6.537965 34.987893 28.727009
LeftArm 78.699970 12.272779 -67.509705
LeftForeArm -18.177786 -0.000000 94.960263
LeftHand -12.097831 -0.000000 -9.076028
LeftHandThumb1 -26.253704 0.000000 33.147579
RightShoulder -0.229780 -15.829221 -47.202327
RightArm 95.380103 6.331410 78.575731
RightForeArm 18.357684 -0.000000 98.448350
RightHand 12.202910 -0.000000 -6.586818
RightHandThumb1 -24.326973 -0.000000 -32.862282
LeftUpLeg -24.811652 4.188040 -0.376447
LeftLeg -0.442131 -0.000000 0.000000
LeftFoot -5.536747 -2.836927 -1.527169
LeftToeBase 4.071173 -0.000000 -0.000000
RightUpLeg -24.789013 -7.625908 4.740741
RightLeg -0.389512 -0.000000 0.000000
RightFoot -8.712423 -1.670767 11.213929
RightToeBase 16.125159 -0.000000 -0.000000
1525
root 0.178976 32.466257 -7.022330 28.855992 2.298760 -0.209896
Spine -33.968435 -3.716960 1.877940
Head -5.160204 -12.252464 4.796255
LeftShoulder 6.992034 34.478172 29.118608
LeftArm 79.790630 13.026550 -66.904675
LeftForeArm -19.095504 -0.000000 93.810011
LeftHand -11.923667 -0.000000 -9.021818
LeftHandThumb1 -26.253704 0.000000 33.147579
RightShoulder 0.001659 -15.177653 -47.614914
RightArm 96.149837 5.421693 78.432869
RightForeArm 18.249324 -0.000000 98.051220
RightHand 12.164998 -0.000000 -6.633324
RightHandThumb1 -24.326973 -0.000000 -32.862282
LeftUpLeg -24.861562 4.200985 -0.382686
LeftLeg -0.439104 -0.000000 0.000000
LeftFoot -5.514718 -2.836652 -1.527578
LeftToeBase 4.048300 -0.000000 -0.000000
RightUpLeg -24.860741 -7.602477 4.743266
RightLeg -0.346900 -0.000000 0.000000
RightFoot -8.670497 -1.658868 11.284399
RightToeBase 15.971378 -0.000000 -0.000000
1526
root 0.177119 32.465827 -7.036028 28.881163 2.272735 -0.216155
Spine -33.933658 -4.064119 2.121718
Head -5.503039 -12.126588 4.745182
LeftShoulder 7.343991 34.056305 29.418646
LeftArm 80.964557 13.622342 -66.296782
LeftForeArm -20.633621 -0.000000 92.607951
LeftHand -11.788135 -0.000000 -9.051416
LeftHandThumb1 -26.253704 0.000000 33.147579
RightShoulder 0.355699 -14.160097 -48.187001
RightArm 96.596180 4.459913 78.436602
RightForeArm 18.349580 -0.000000 97.718369
RightHand 12.079561 -0.000000 -6.444917
RightHandThumb1 -24.326973 -0.000000 -32.862282
LeftUpLeg -24.919661 4.248930 -0.398394
LeftLeg -0.419611 -0.000000 0.000000
LeftFoot -5.511132 -2.876757 -1.528770
LeftToeBase 4.056437 -0.000000 -0.000000
RightUpLeg -24.932047 -7.549721 4.738371
RightLeg -0.302691 -0.000000 0.000000
RightFoot -8.723309 -1.793351 11.157574
RightToeBase 15.860147 -0.000000 -0.000000
1527
root 0.177483 32.465352 -7.048338 28.897074 2.264666 -0.216161
Spine -33.884956 -4.335240 2.283122
Head -5.834217 -12.118681 4.770091
LeftShoulder 7.860226 33.604963 29.847809
LeftArm 82.119068 14.176627 -65.922410
LeftForeArm -22.091794 0.000000 91.381227
LeftHand -11.528734 0.000000 -9.250366
LeftHandThumb1 -26.253704 0.000000 33.147579
RightShoulder 0.557093 -13.169183 -48.651440
RightArm 96.980156 3.519982 78.280884
RightForeArm 18.386342 -0.000000 97.317012
RightHand 12.249403 -0.000000 -6.852603
RightHandThumb1 -24.326973 -0.000000 -32.862282
LeftUpLeg -24.962686 4.221361 -0.391298
LeftLeg -0.408181 -0.000000 0.000000
LeftFoot -5.509427 -2.833393 -1.521632
LeftToeBase 4.048588 -0.000000 -0.000000
RightUpLeg -24.989440 -7.557589 4.745818
RightLeg -0.271312 -0.000000 0.000000
RightFoot -8.685920 -1.691956 11.248090
RightToeBase 15.944413 -0.000000 -0.000000
1528
root 0.176977 32.465894 -7.060233 28.905909 2.216272 -0.227358
Spine -33.836125 -4.561343 2.410888
Head -6.118860 -12.084499 4.829960
LeftShoulder 8.342827 33.639329 30.251174
LeftArm 83.844363 14.424380 -65.366307
LeftForeArm -23.337610 -0.000000 90.034322
LeftHand -11.047499 0.000000 -9.428324
LeftHandThumb1 -26.253704 0.000000 33.147579
RightShoulder 0.780688 -11.985279 -49.148423
RightArm 97.075402 2.567807 78.257989
RightForeArm 18.665982 -0.000000 97.017871
RightHand 12.337371 -0.000000 -6.755194
RightHandThumb1 -24.326973 -0.000000 -32.862282
LeftUpLeg -24.998740 4.270061 -0.404652
LeftLeg -0.388483 -0.000000 0.000000
LeftFoot -5.504695 -2.846323 -1.519670
LeftToeBase 4.064010 -0.000000 -0.000000
RightUpLeg -25.044865 -7.511727 4.741183
RightLeg -0.223465 -0.000000 0.000000
RightFoot -8.713126 -1.705700 11.147712
RightToeBase 16.137465 -0.000000 -0.000000
1529
root 0.175727 32.466943 -7.071511 28.896382 2.175502 -0.229392
Spine -33.750230 -4.825613 2.571591
Head -6.463066 -12.071642 4.817418
LeftShoulder 8.837962 33.049660 30.721243
LeftArm 84.832802 14.843755 -65.190384
LeftForeArm -24.702571 -0.000000 88.871271
LeftHand -10.633635 -0.000000 -9.751932
LeftHandThumb1 -26.253704 0.000000 33.147579
RightShoulder 0.942634 -10.908044 -49.579403
RightArm 97.441713 1.643600 78.050051
RightForeArm 18.481013 -0.000000 96.633151
RightHand 12.429107 -0.000000 -7.085467
RightHandThumb1 -24.326973 -0.000000 -32.862282
LeftUpLeg -25.013110 4.281809 -0.409638
LeftLeg -0.374415 -0.000000 0.000000
LeftFoot -5.496583 -2.814997 -1.516209
LeftToeBase 4.065856 -0.000000 -0.000000
RightUpLeg -25.078001 -7.493211 4.737427
RightLeg -0.191391 -0.000000 0.000000
RightFoot -8.659988 -1.747172 11.211534
RightToeBase 15.693742 -0.000000 -0.000000
1530
root 0.175190 32.466609 -7.083195 28.894676 2.124149 -0.227136
Spine -33.681745 -5.085219 2.730278
Head -6.751933 -11.972519 4.784283
LeftShoulder 9.322014 32.420177 31.212849
LeftArm 85.752982 15.268981 -65.189410
LeftForeArm -25.509003 -0.000000 87.806143
LeftHand -10.275113 0.000000 -10.064751
LeftHandThumb1 -26.253704 0.000000 33.147579
RightShoulder 1.151188 -9.767403 -50.043763
RightArm 97.733834 0.760728 77.932147
RightForeArm 18.402969 -0.000000 96.256922
RightHand 12.551723 -0.000000 -7.222553
RightHandThumb1 -24.326973 -0.000000 -32.862282
LeftUpLeg -25.038362 4.294513 -0.422603
LeftLeg -0.349310 -0.000000 0.000000
LeftFoot -5.497107 -2.788172 -1.540737
LeftToeBase 4.060621 -0.000000 -0.000000
RightUpLeg -25.117107 -7.475615 4.735528
RightLeg -0.159028 -0.000000 0.000000
RightFoot -8.693550 -1.777057 11.027029
RightToeBase 15.762104 -0.000000 -0.000000
1531
root 0.173274 32.467284 -7.095169 28.911123 2.058244 -0.237713
Spine -33.643073 -5.357665 2.916772
Head -6.978901 -11.906703 4.727235
LeftShoulder 9.772402 31.874578 31.729057
LeftArm 86.725918 15.636334 -65.266897
LeftForeArm -26.103191 -0.000000 86.838922
LeftHand -9.962440 -0.000000 -10.227134
LeftHandThumb1 -26.253704 0.000000 33.147579
RightShoulder 1.423677 -8.641245 -50.539813
RightArm 98.056212 -0.062730 77.881728
RightForeArm 18.307324 -0.000000 95.890263
RightHand 12.726856 -0.000000 -7.244935
RightHandThumb1 -24.326973 -0.000000 -32.862282
LeftUpLeg -25.081442 4.335587 -0.433244
LeftLeg -0.327061 -0.000000 0.000000
LeftFoot -5.496028 -2.778720 -1.547715
LeftToeBase 4.075657 -0.000000 -0.000000
RightUpLeg -25.173985 -7.393658 4.708684
RightLeg -0.131099 -0.000000 0.000000
RightFoot -8.639274 -1.684596 11.206137
RightToeBase 15.962051 -0.000000 -0.000000
1532
root 0.171516 32.467330 -7.107310 28.921318 1.984511 -0.238298
Spine -33.620799 -5.607193 3.086619
Head -7.127226 -11.806432 4.616720
LeftShoulder 10.224178 30.998292 32.199863
LeftArm 87.364978 16.018490 -65.448027
LeftForeArm -26.793820 -0.000000 85.933890
LeftHand -9.699897 -0.000000 -10.225289
LeftHandThumb1 -26.253704 0.000000 33.147579
RightShoulder 1.706041 -7.530221 -51.034112
RightArm 98.385627 -0.820540 77.809051
RightForeArm 18.095398 0.000000 95.492709
RightHand 12.768644 -0.000000 -7.373400
RightHandThumb1 -24.326973 -0.000000 -32.862282
LeftUpLeg -25.121581 4.383213 -0.457003
LeftLeg -0.296776 -0.000000 0.000000
LeftFoot -5.485630 -2.772472 -1.550228
LeftToeBase 4.045087 -0.000000 -0.000000
RightUpLeg -25.226224 -7.332695 4.686862
RightLeg -0.096499 -0.000000 0.000000
RightFoot -8.669344 -1.700119 11.053116
RightToeBase 16.049355 -0.000000 -0.000000
